<svg version="1.1" id="Layer_1" xmlns="http://www.w3.org/2000/svg" xmlns:xlink="http://www.w3.org/1999/xlink" x="0px" y="0px"
	 width="175" viewBox="0 0 159 50" enable-background="new 0 0 159 50" xml:space="preserve">
<path fill="#154815" opacity="1.000000" stroke="none" 
	d="
M121.000000,1.000000 
	C133.955414,1.000000 146.910812,1.000000 159.933105,1.000000 
	C159.933105,17.564699 159.933105,34.129707 159.933105,51.000000 
	C147.314072,51.000000 134.625687,51.000000 121.500687,50.532127 
	C121.042702,33.709507 121.021355,17.354753 121.000000,1.000000 
M144.189194,15.609980 
	C144.189194,13.338703 144.189194,11.067426 144.189194,8.551609 
	C141.861313,8.551609 140.132919,8.551609 138.123688,8.551609 
	C138.123688,20.324041 138.123688,31.831909 138.123688,43.567596 
	C140.156387,43.567596 141.884277,43.567596 144.189194,43.567596 
	C144.189194,34.407291 144.189194,25.493490 144.189194,15.609980 
z"/>
<path fill="#03AA03" opacity="1.000000" stroke="none" 
	d="
M120.531342,1.000000 
	C121.021355,17.354753 121.042702,33.709507 121.032028,50.532127 
	C107.312439,51.000000 93.624878,51.000000 79.438248,50.532063 
	C78.959450,33.709415 78.979721,17.354708 79.000000,1.000000 
	C92.687561,1.000000 106.375122,1.000000 120.531342,1.000000 
M115.100250,12.434268 
	C115.050552,10.540210 115.810730,8.219144 112.521957,8.234390 
	C103.747269,8.275067 94.972267,8.248233 85.946259,8.248233 
	C85.946259,10.390653 85.946259,12.066917 85.946259,14.182919 
	C89.791138,14.182919 93.211571,14.182919 97.080505,14.182919 
	C97.080505,24.192514 97.080505,33.767746 97.080505,43.568459 
	C99.410980,43.568459 101.275398,43.568459 103.660187,43.568459 
	C103.660187,33.666412 103.660187,24.094700 103.660187,14.444721 
	C107.721596,14.032123 111.277740,13.670854 115.100250,12.434268 
z"/>
<path fill="#07AC07" opacity="1.000000" stroke="none" 
	d="
M38.000000,51.000000 
	C25.710339,51.000000 13.420676,51.000000 1.065507,51.000000 
	C1.065507,34.436222 1.065507,17.872147 1.065507,1.000000 
	C13.019140,1.000000 25.040911,1.000000 37.539795,1.468679 
	C38.011269,18.291571 38.005634,34.645786 38.000000,51.000000 
M11.730444,8.239266 
	C10.280176,8.335302 8.829907,8.431338 7.313301,8.531767 
	C7.313301,20.428009 7.313301,31.959105 7.313301,43.555435 
	C15.108167,43.555435 22.504416,43.555435 30.353168,43.555435 
	C30.244577,41.673714 30.155546,40.130955 30.041553,38.155628 
	C24.283379,38.155628 19.025354,38.155628 13.547539,38.155628 
	C13.547539,34.796974 13.547539,31.905581 13.547539,28.473518 
	C18.123016,28.473518 22.380026,28.473518 26.788473,28.473518 
	C26.788473,26.505823 26.788473,25.081522 26.788473,22.942654 
	C22.175379,22.942654 17.809626,22.942654 13.496286,22.942654 
	C13.496286,19.624514 13.496286,17.025354 13.496286,13.828936 
	C19.137064,13.828936 24.529324,13.828936 30.348713,13.828936 
	C30.244225,11.650561 30.169685,10.096565 30.080572,8.238758 
	C23.962036,8.238758 18.324219,8.238758 11.730444,8.239266 
z"/>
<path fill="#154B15" opacity="1.000000" stroke="none" 
	d="
M38.468658,51.000000 
	C38.005634,34.645786 38.011269,18.291571 38.008453,1.468679 
	C51.354229,1.000000 64.708458,1.000000 78.531342,1.000000 
	C78.979721,17.354708 78.959450,33.709415 78.969589,50.532063 
	C65.645775,51.000000 52.291546,51.000000 38.468658,51.000000 
M43.128506,30.486069 
	C43.128506,34.762794 43.128506,39.039520 43.128506,44.245369 
	C50.331963,43.780708 56.992344,43.920368 63.428223,42.786118 
	C70.814095,41.484440 75.618622,34.945255 76.036140,27.374239 
	C76.496948,19.018368 72.544594,11.691360 64.959641,9.891973 
	C58.037319,8.249783 50.694080,8.381887 43.830936,7.758755 
	C43.362789,9.389734 43.193665,9.706791 43.192062,10.024691 
	C43.159389,16.513538 43.145859,23.002481 43.128506,30.486069 
z"/>
<path fill="#F2F5F2" opacity="1.000000" stroke="none" 
	d="
M144.189194,16.094833 
	C144.189194,25.493490 144.189194,34.407291 144.189194,43.567596 
	C141.884277,43.567596 140.156387,43.567596 138.123688,43.567596 
	C138.123688,31.831909 138.123688,20.324041 138.123688,8.551609 
	C140.132919,8.551609 141.861313,8.551609 144.189194,8.551609 
	C144.189194,11.067426 144.189194,13.338703 144.189194,16.094833 
z"/>
<path fill="#E1F5E1" opacity="1.000000" stroke="none" 
	d="
M114.967064,12.871926 
	C111.277740,13.670854 107.721596,14.032123 103.660187,14.444721 
	C103.660187,24.094700 103.660187,33.666412 103.660187,43.568459 
	C101.275398,43.568459 99.410980,43.568459 97.080505,43.568459 
	C97.080505,33.767746 97.080505,24.192514 97.080505,14.182919 
	C93.211571,14.182919 89.791138,14.182919 85.946259,14.182919 
	C85.946259,12.066917 85.946259,10.390653 85.946259,8.248233 
	C94.972267,8.248233 103.747269,8.275067 112.521957,8.234390 
	C115.810730,8.219144 115.050552,10.540210 114.967064,12.871926 
z"/>
<path fill="#E6F6E6" opacity="1.000000" stroke="none" 
	d="
M12.208423,8.239012 
	C18.324219,8.238758 23.962036,8.238758 30.080572,8.238758 
	C30.169685,10.096565 30.244225,11.650561 30.348713,13.828936 
	C24.529324,13.828936 19.137064,13.828936 13.496286,13.828936 
	C13.496286,17.025354 13.496286,19.624514 13.496286,22.942654 
	C17.809626,22.942654 22.175379,22.942654 26.788473,22.942654 
	C26.788473,25.081522 26.788473,26.505823 26.788473,28.473518 
	C22.380026,28.473518 18.123016,28.473518 13.547539,28.473518 
	C13.547539,31.905581 13.547539,34.796974 13.547539,38.155628 
	C19.025354,38.155628 24.283379,38.155628 30.041553,38.155628 
	C30.155546,40.130955 30.244577,41.673714 30.353168,43.555435 
	C22.504416,43.555435 15.108167,43.555435 7.313301,43.555435 
	C7.313301,31.959105 7.313301,20.428009 7.313301,8.531767 
	C8.829907,8.431338 10.280176,8.335302 12.208423,8.239012 
z"/>
<path fill="#E8EDE8" opacity="1.000000" stroke="none" 
	d="
M43.128510,29.988737 
	C43.145859,23.002481 43.159389,16.513538 43.192062,10.024691 
	C43.193665,9.706791 43.362789,9.389734 43.830936,7.758755 
	C50.694080,8.381887 58.037319,8.249783 64.959641,9.891973 
	C72.544594,11.691360 76.496948,19.018368 76.036140,27.374239 
	C75.618622,34.945255 70.814095,41.484440 63.428223,42.786118 
	C56.992344,43.920368 50.331963,43.780708 43.128506,44.245369 
	C43.128506,39.039520 43.128506,34.762794 43.128510,29.988737 
M68.741409,21.387177 
	C65.247284,14.080954 61.269924,12.548503 50.230717,14.376863 
	C50.230717,22.204344 50.230717,30.066980 50.230717,37.884171 
	C64.833702,39.994797 70.301880,35.322643 68.741409,21.387177 
z"/>
<path fill="#174817" opacity="1.000000" stroke="none" 
	d="
M68.841217,21.792969 
	C70.301880,35.322643 64.833702,39.994797 50.230717,37.884171 
	C50.230717,30.066980 50.230717,22.204344 50.230717,14.376863 
	C61.269924,12.548503 65.247284,14.080954 68.841217,21.792969 
z"/>
</svg>